<svg height="542" width="720" xmlns="http://www.w3.org/2000/svg">
<rect height="542" fill="#555" width="720"></rect>
<text fill="#7f7" font-family="Courier New" font-size="12" xml:space="preserve">
<tspan x="10" y="26">1 megabytes installed</tspan>
<tspan x="10" y="42"></tspan>
<tspan x="10" y="58">node_modules</tspan>
<tspan x="10" y="74">└─┬ is-up@2.0.0 </tspan>
<tspan x="10" y="90">  └─┬ got@5.7.1 </tspan>
<tspan x="10" y="106">    ├─┬ create-error-class@3.0.2 </tspan>
<tspan x="10" y="122">    │ └── capture-stack-trace@1.0.0 </tspan>
<tspan x="10" y="138">    ├── duplexer2@0.1.4 </tspan>
<tspan x="10" y="154">    ├── is-redirect@1.0.0 </tspan>
<tspan x="10" y="170">    ├── is-retry-allowed@1.1.0 </tspan>
<tspan x="10" y="186">    ├── is-stream@1.1.0 </tspan>
<tspan x="10" y="202">    ├── lowercase-keys@1.0.0 </tspan>
<tspan x="10" y="218">    ├── node-status-codes@1.0.0 </tspan>
<tspan x="10" y="234">    ├── object-assign@4.1.1 </tspan>
<tspan x="10" y="250">    ├─┬ parse-json@2.2.0 </tspan>
<tspan x="10" y="266">    │ └─┬ error-ex@1.3.1 </tspan>
<tspan x="10" y="282">    │   └── is-arrayish@0.2.1 </tspan>
<tspan x="10" y="298">    ├─┬ pinkie-promise@2.0.1 </tspan>
<tspan x="10" y="314">    │ └── pinkie@2.0.4 </tspan>
<tspan x="10" y="330">    ├── read-all-stream@3.1.0 </tspan>
<tspan x="10" y="346">    ├─┬ readable-stream@2.2.9 </tspan>
<tspan x="10" y="362">    │ ├── buffer-shims@1.0.0 </tspan>
<tspan x="10" y="378">    │ ├── core-util-is@1.0.2 </tspan>
<tspan x="10" y="394">    │ ├── inherits@2.0.3 </tspan>
<tspan x="10" y="410">    │ ├── isarray@1.0.0 </tspan>
<tspan x="10" y="426">    │ ├── process-nextick-args@1.0.7 </tspan>
<tspan x="10" y="442">    │ ├── string_decoder@1.0.0 </tspan>
<tspan x="10" y="458">    │ └── util-deprecate@1.0.2 </tspan>
<tspan x="10" y="474">    ├── timed-out@3.1.3 </tspan>
<tspan x="10" y="490">    ├── unzip-response@1.0.2 </tspan>
<tspan x="10" y="506">    └─┬ url-parse-lax@1.0.0 </tspan>
<tspan x="10" y="522">      └── prepend-http@1.0.4</tspan>
</text>
</svg>
